<svg height="512" viewBox="0 0 64 64" width="512" xmlns="http://www.w3.org/2000/svg"><g id="Filled_outline" data-name="Filled outline"><path d="m56 21s-4 2-6 0c-3-3 3-12 3-12s-9 10-11 9c-2.53-1.265 1-8 1-8s-24.155 24.017-33.491 29.965c-3.544 2.258-6.509 5.561-6.509 10.035a11 11 0 0 0 11 11 12.079 12.079 0 0 0 7.851-3.3c19.363-16.646 34.149-36.7 34.149-36.7z" fill="#4da6ea"/><path d="m38 28s-5 0-7 7c-1.671 5.849-6 6-6 6a40.008 40.008 0 0 1 3-9c-2 1-4.5.5-7 3a20.006 20.006 0 0 1 -8.121 4.057c-5.443 1.216-9.879 5.243-9.879 10.943a11 11 0 0 0 11 11c4.087 0 7.225-2.513 9.542-5.542.743-.971 3.888-6.491 5.458-8.458 10.588-13.263 6-12 9-19z" fill="#e1462b"/><circle cx="14" cy="50" fill="#fcf05a" r="7"/><g fill="#f9bb4b"><path d="m21 50a7 7 0 0 0 -12.423-4.423l2.423 2.423 4-1-1 5 4-1 1.773 2.956a6.966 6.966 0 0 0 1.227-3.956z"/><circle cx="23" cy="21" r="2"/><circle cx="25" cy="11" r="2"/><circle cx="46" cy="50" r="2"/></g><path d="m6.769 40.76c-.05.037-.144.123-.144.123-3.02 2.603-4.625 5.708-4.625 9.117a12.013 12.013 0 0 0 12 12 10.717 10.717 0 0 0 2.188-.228s.2-.052.3-.076a14.372 14.372 0 0 0 6.012-3.239c19.23-16.527 34.156-36.657 34.305-36.863a1 1 0 0 0 -1.252-1.489c-.87.436-3.631 1.4-4.846.188-1.825-1.825 1.317-8.023 3.125-10.738a1 1 0 0 0 -1.575-1.224c-3.762 4.179-8.577 8.635-9.873 8.737a.577.577 0 0 1 -.212-.327c-.438-1.35.819-4.567 1.714-6.277a1 1 0 0 0 -1.586-1.173c-.246.239-24.191 24.009-33.328 29.831a20.359 20.359 0 0 0 -2.203 1.638zm33.623-26.793a6.5 6.5 0 0 0 -.123 3.388 2.536 2.536 0 0 0 1.284 1.54c.941.466 2.994-.077 7.461-4.315-.959 2.639-1.369 5.479.279 7.127a4.7 4.7 0 0 0 4.05 1.117 264.119 264.119 0 0 1 -26.205 28.776c.967-1.563 1.967-3.129 2.643-3.976 7.279-9.117 7.569-11.6 7.9-14.465a14.888 14.888 0 0 1 1.234-4.765 1 1 0 0 0 -.915-1.394c-.235 0-5.779.088-7.962 7.726-.875 3.065-2.52 4.351-3.7 4.889a39.406 39.406 0 0 1 2.562-7.168 1 1 0 0 0 -1.342-1.342 8.633 8.633 0 0 1 -2.024.609 9.5 9.5 0 0 0 -5.236 2.579 17.975 17.975 0 0 1 -5.731 3.213c8.113-6.451 20.064-17.917 25.825-23.539zm-29.971 26.946a14.247 14.247 0 0 1 2.676-.881 20.971 20.971 0 0 0 8.61-4.325 7.505 7.505 0 0 1 4.25-2.04l.239-.052a41.193 41.193 0 0 0 -2.176 7.185 1 1 0 0 0 .218.843.938.938 0 0 0 .8.352c.206-.007 5.077-.251 6.927-6.725 1.072-3.76 3.043-5.27 4.44-5.87a17.079 17.079 0 0 0 -.707 3.526c-.3 2.564-.558 4.779-7.479 13.449-1 1.251-2.558 3.8-3.81 5.843-.722 1.18-1.4 2.3-1.661 2.632-2.12 2.771-4.465 4.442-6.97 4.966a16.323 16.323 0 0 1 -1.778.184 9.782 9.782 0 0 1 -6.117-17.585 12.541 12.541 0 0 1 2.537-1.5z"/><path d="m44.757 5h8.485v2h-8.485z" transform="matrix(.707 -.707 .707 .707 10.109 36.406)"/><path d="m54.379 3.5h4.243v2h-4.243z" transform="matrix(.707 -.707 .707 .707 13.366 41.27)"/><path d="m50.979 11.5h12.042v1.999h-12.042z" transform="matrix(.664 -.747 .747 .664 9.789 46.798)"/><path d="m57.379 15.5h4.243v2h-4.243z" transform="matrix(.707 -.707 .707 .707 5.76 46.906)"/><path d="m25.101 11h19.799v2h-19.799z" transform="matrix(.707 -.707 .707 .707 1.766 28.263)"/><path d="m43.985 31.5h17.029v2h-17.029z" transform="matrix(.646 -.763 .763 .646 -6.222 51.585)"/><path d="m14 58a8 8 0 1 0 -8-8 8.009 8.009 0 0 0 8 8zm0-14a5.99 5.99 0 0 1 5.694 7.88l-.837-1.4a1 1 0 0 0 -1.1-.455l-2.468.616.69-3.45a1 1 0 0 0 -1.222-1.166l-3.451.863-1.33-1.326a5.971 5.971 0 0 1 4.024-1.562zm-5.274 3.14 1.567 1.567a.994.994 0 0 0 .949.263l2.468-.616-.69 3.45a1 1 0 0 0 1.222 1.166l3.281-.821 1.042 1.735a6 6 0 0 1 -9.839-6.744z"/><path d="m20 39h2v2h-2z"/><path d="m24 44h2v2h-2z"/><path d="m31.757 22h8.485v2h-8.485z" transform="matrix(.707 -.707 .707 .707 -5.719 32.192)"/><path d="m38.964 22.5h7.071v2h-7.071z" transform="matrix(.707 -.707 .707 .707 -4.169 36.935)"/><path d="m39.39 27.501h9.22v1.999h-9.22z" transform="matrix(.651 -.759 .759 .651 -6.274 43.36)"/><path d="m20 21a3 3 0 1 0 3-3 3 3 0 0 0 -3 3zm4 0a1 1 0 1 1 -1-1 1 1 0 0 1 1 1z"/><path d="m28 11a3 3 0 1 0 -3 3 3 3 0 0 0 3-3zm-3 1a1 1 0 1 1 1-1 1 1 0 0 1 -1 1z"/><path d="m43 50a3 3 0 1 0 3-3 3 3 0 0 0 -3 3zm4 0a1 1 0 1 1 -1-1 1 1 0 0 1 1 1z"/></g></svg>